Coordinates
version=1
nRows=19
nColumns=18
inDegrees=yes

Units are S.I. units (second, meters, Newtons, ...)
If the header above contains a line with 'inDegrees', this indicates whether rotational values are in degrees (yes) or radians (no).

endheader
time	ground_thorax_rot_x	ground_thorax_rot_y	ground_thorax_rot_z	ground_thorax_tx	ground_thorax_ty	ground_thorax_tz	clav_prot	clav_elev	scapula_abduction	scapula_elevation	scapula_upward_rot	scapula_winging	plane_elv	shoulder_elv	axial_rot	elbow_flexion	pro_sup
      0.00000000	      3.28064364	     -2.47526682	     -8.76973543	     -0.00455876	      0.00380601	      0.00053729	    -22.95710073	     -6.11972201	    -14.61242616	     -4.54916777	      9.61775840	      6.86003569	    -31.92950699	     17.32389824	     55.03677188	      0.00000000	     34.32000000
      0.01000000	      3.31095451	     -2.44971221	     -8.75095429	     -0.00448019	      0.00377084	      0.00050690	    -22.94994484	     -6.14076825	    -14.59889159	     -4.56320615	      9.61098661	      6.86890929	    -31.92385120	     17.30273738	     55.03670865	      0.00000000	     34.32000000
      0.02000000	      3.36296229	     -2.42514175	     -8.74911028	     -0.00440927	      0.00368144	      0.00048479	    -22.94125679	     -6.16651845	    -14.59068868	     -4.57626011	      9.58758844	      6.88342631	    -31.92087202	     17.28943706	     55.03857132	      0.00000000	     34.32000000
      0.03000000	      3.36427050	     -2.42520249	     -8.74907682	     -0.00443955	      0.00354027	      0.00049013	    -22.94128209	     -6.16712510	    -14.59079277	     -4.57664162	      9.58724275	      6.88375210	    -31.92091960	     17.28988703	     55.03865025	      0.00000000	     34.32000000
      0.04000000	      3.35893385	     -2.42989343	     -8.77127544	     -0.00449162	      0.00354521	      0.00060166	    -22.95083443	     -6.16518347	    -14.59692529	     -4.58116457	      9.60711622	      6.87860925	    -31.91974750	     17.35101961	     55.04427214	      0.00000000	     34.32000000
      0.05000000	      3.33534693	     -2.42068143	     -8.76699925	     -0.00456977	      0.00362225	      0.00071533	    -22.95780806	     -6.16329615	    -14.59072328	     -4.58954570	      9.64150912	      6.86989508	    -31.91439414	     17.38911459	     55.04657735	      0.00000000	     34.32000000
      0.06000000	      3.33474462	     -2.41997972	     -8.76682027	     -0.00458424	      0.00361318	      0.00084199	    -22.95786297	     -6.16332274	    -14.59032822	     -4.58981355	      9.64240004	      6.86969188	    -31.91427626	     17.39005574	     55.04660595	      0.00000000	     34.32000000
      0.07000000	      3.33571600	     -2.41980559	     -8.76622405	     -0.00462202	      0.00349403	      0.00088163	    -22.95791881	     -6.16393947	    -14.59007624	     -4.59040040	      9.64278142	      6.86982302	    -31.91425060	     17.39070972	     55.04661400	      0.00000000	     34.32000000
      0.08000000	      3.48776077	     -2.42234160	     -8.75806317	     -0.00464368	      0.00370696	      0.00092503	    -22.96316579	     -6.22279595	    -14.55075866	     -4.65402503	      9.70707454	      6.87570368	    -31.92552237	     17.59809964	     55.03649475	      0.00000000	     34.32000000
      0.09000000	      3.48744353	     -2.42226861	     -8.75808412	     -0.00466153	      0.00367687	      0.00098541	    -22.96321157	     -6.22274572	    -14.55069666	     -4.65406518	      9.70735426	      6.87561986	    -31.92554218	     17.59859684	     55.03645415	      0.00000000	     34.32000000
      0.10000000	      3.50083178	     -2.44301438	     -8.75028670	     -0.00463387	      0.00365501	      0.00103044	    -22.97303459	     -6.22780395	    -14.55403397	     -4.66485132	      9.73023406	      6.87229143	    -31.93696706	     17.65307267	     55.02311490	      0.00000000	     34.32000000
      0.11000000	      3.50030149	     -2.44297202	     -8.75035645	     -0.00468243	      0.00364182	      0.00110224	    -22.97313449	     -6.22770227	    -14.55395605	     -4.66491591	      9.73073688	      6.87213743	    -31.93697177	     17.65373947	     55.02305862	      0.00000000	     34.32000000
      0.12000000	      3.46904348	     -2.43832491	     -8.73323166	     -0.00473243	      0.00371091	      0.00110739	    -22.97817402	     -6.22143840	    -14.54350361	     -4.67069650	      9.76856373	      6.86095737	    -31.93223755	     17.67730975	     55.01610598	      0.00000000	     34.32000000
      0.13000000	      3.43261504	     -2.42019828	     -8.72111749	     -0.00471233	      0.00386453	      0.00109089	    -22.97736381	     -6.21012635	    -14.52974438	     -4.66936725	      9.79604088	      6.85023594	    -31.92384115	     17.68017316	     55.01059630	      0.00000000	     34.32000000
      0.14000000	      3.39871002	     -2.35634920	     -8.71979893	     -0.00467675	      0.00384237	      0.00102457	    -22.94751982	     -6.13550923	    -14.49083534	     -4.61189897	      9.80445014	      6.82030663	    -31.90152004	     17.59449889	     54.95951539	      0.00000000	     34.32000000
      0.15000000	      3.39913974	     -2.35478276	     -8.71801591	     -0.00451749	      0.00376649	      0.00104274	    -22.94734874	     -6.13619165	    -14.49004638	     -4.61258827	      9.80507186	      6.82039722	    -31.90096488	     17.59399913	     54.95939930	      0.00000000	     34.32000000
      0.16000000	      3.42093497	     -2.32411232	     -8.68249368	     -0.00460122	      0.00372554	      0.00103201	    -22.94781638	     -6.15544681	    -14.47381073	     -4.63390850	      9.82825976	      6.82166962	    -31.88358952	     17.59284069	     54.95372831	      0.00000000	     34.32000000
      0.17000000	      3.42264639	     -2.32499553	     -8.68280349	     -0.00463786	      0.00367376	      0.00099713	    -22.94805295	     -6.15556473	    -14.47436303	     -4.63391949	      9.82795018	      6.82186511	    -31.88366494	     17.59328884	     54.95343515	      0.00000000	     34.32000000
      0.18000000	      3.45563318	     -2.36274450	     -8.69737666	     -0.00465559	      0.00375844	      0.00104101	    -22.95482231	     -6.14838340	    -14.49626397	     -4.62445072	      9.81216957	      6.82332634	    -31.88786589	     17.59833061	     54.94403481	      0.00000000	     34.32000000
